<svg version="1.2" xmlns="http://www.w3.org/2000/svg" viewBox="0 0 302 334" width="302" height="334">
	<title>grow_nostr_initiative-svg</title>
	<style>
		tspan { white-space:pre } 
		.s0 { fill: #643f98 } 
	</style>
	<g>
		<g id="Layer_1">
			<path class="s0" d="m255.4 182.3c-33.7 16.2-66.3 34.1-93.1 61.2-2.3-19.6 5.3-40 20.4-55.3 26.5-26.9 59.9-39.9 96-47.4 6.3-1.3 12.6-2.4 18.9-3.5 0.8-0.1 1.6 0.1 3.5 0.3-5.4 44-16.1 85.2-52.7 114.3-19.9 15.8-43.1 22.1-68.4 18-7.5-1.2-11 1.2-14.1 7.7-7 14.4-8 29.4-6.1 44.9 0.4 3.6 0.8 7.1 1.3 11.5h-23c0-29.6 8.7-55.2 30.8-75.2 25.6-23.2 51.7-45.9 77.6-68.9 2.9-2.6 5.9-5 8.9-7.6z"/>
			<path class="s0" d="m138.1 281.1c-3.5-7.7-7.3-12.7-17.1-11.5-45.6 5.5-77.3-15.7-98.9-54-12.5-22.1-18.7-46.5-21.8-71.6-0.3-2.4 0-4.9 0-7.6 43.9 5.4 83.9 18 116 49.3 15.8 15.4 23.6 34 22.6 58.1-26.7-27.8-58.8-45.1-91.6-61.6 16.9 14.9 33.9 29.5 50.6 44.6 13.2 12 26.2 24.3 38.6 37 4 4.1 9.5 9.9 1.7 17.3z"/>
			<g>
				<path class="s0" d="m164.4 96.4c-0.4-4.3-4.1-7.5-8.4-7.1-4.3 0.4-7.5 4.1-7.1 8.4 0.4 4.4 4.2 7.5 8.5 7.1 4.3-0.4 7.5-4.1 7.1-8.4z"/>
				<path class="s0" d="m210.2 102.3c-5.2-33.3-23.5-59.8-44.5-84.8-4.8-5.7-9.9-11.2-15.3-17.2-18.2 19.7-34.6 39.3-46.6 62.2-11.9 22.8-18 46.8-13.3 72.7 4.1 22.4 24.3 41 46.1 43.4-0.3-8.5-1.4-20.5-1.4-20.5-3.3-40.3-27.1-68.7-6.4-74.4 18.9-5.3 41-5.3 42.4 9.5 0.1 1.3 0.6 5.1 6.1 6.7 3.3 1 8.2 1 14.6 0.3 0 0 5.8-0.9 6.3 5 0.6 7.4-12.5 7.9-12.5 7.9-4.3 0.5-14.6 0.2-20.3 2.5-3 1.2-5.6 3.2-6.9 6.4-2.3 5.5-2.6 17.3-1.8 29.5l-0.3 27.9h1.2c30-2.4 51-22.3 53.6-51.4 0.8-8.5 0.1-17.3-1.2-25.8z"/>
			</g>
			<g>
			</g>
		</g>
	</g>
</svg>